<?xml version="1.0" encoding="UTF-8"?>
<!DOCTYPE svg PUBLIC "-//W3C//DTD SVG 1.1//EN" "http://www.w3.org/Graphics/SVG/1.1/DTD/svg11.dtd">
<svg xmlns="http://www.w3.org/2000/svg" version="1.1" width="364px" height="365px" style="shape-rendering:geometricPrecision; text-rendering:geometricPrecision; image-rendering:optimizeQuality; fill-rule:evenodd; clip-rule:evenodd" xmlns:xlink="http://www.w3.org/1999/xlink">
<g><path style="opacity:0.989" fill="#353535" d="M 168.5,-0.5 C 177.167,-0.5 185.833,-0.5 194.5,-0.5C 276.265,9.4726 330.432,53.4726 357,131.5C 359.512,141.901 361.679,152.234 363.5,162.5C 363.5,175.5 363.5,188.5 363.5,201.5C 354.063,268.078 319.397,316.411 259.5,346.5C 259.062,346.565 258.728,346.399 258.5,346C 262.571,344.639 265.905,342.305 268.5,339C 271.618,337.853 274.618,336.52 277.5,335C 276.167,334.667 274.833,334.333 273.5,334C 276.167,333.667 278.833,333.333 281.5,333C 282.24,331.215 282.907,329.382 283.5,327.5C 285.523,325.819 288.023,324.153 291,322.5C 292.852,320.77 292.686,319.604 290.5,319C 293.544,318.641 293.878,317.974 291.5,317C 294.672,314.581 298.006,312.414 301.5,310.5C 304.102,306.294 306.436,301.961 308.5,297.5C 309.729,296.719 311.062,296.219 312.5,296C 309.98,293.345 310.313,290.678 313.5,288C 313.167,287.667 312.833,287.333 312.5,287C 314.125,284.89 315.458,282.557 316.5,280C 316.167,279.667 315.833,279.333 315.5,279C 318.542,274.059 319.209,268.893 317.5,263.5C 318.325,262.614 319.325,262.281 320.5,262.5C 320.36,260.876 321.027,259.71 322.5,259C 320.285,257.609 320.285,255.943 322.5,254C 321.833,253.667 321.167,253.333 320.5,253C 321.13,251.108 322.13,249.441 323.5,248C 320.93,245.385 320.93,242.718 323.5,240C 323.296,237.379 323.296,234.545 323.5,231.5C 319.7,231.181 319.534,230.181 323,228.5C 323.483,227.552 323.649,226.552 323.5,225.5C 322.5,225.5 321.5,225.5 320.5,225.5C 320.36,223.876 321.027,222.71 322.5,222C 321.692,221.692 321.025,221.192 320.5,220.5C 321.729,219.719 323.062,219.219 324.5,219C 322.892,218.531 321.225,217.865 319.5,217C 320.313,215.686 321.313,214.519 322.5,213.5C 321.066,212.77 319.9,211.77 319,210.5C 318.244,204.6 315.911,200.266 312,197.5C 311,195.5 310,193.5 309,191.5C 308.086,192.654 307.253,192.487 306.5,191C 306.833,190.667 307.167,190.333 307.5,190C 306.207,189.51 304.873,189.343 303.5,189.5C 303.567,186.517 302.567,184.85 300.5,184.5C 301.428,183.232 301.595,181.899 301,180.5C 300.667,180.833 300.333,181.167 300,181.5C 299,180.167 298,178.833 297,177.5C 296.086,178.654 295.253,178.487 294.5,177C 295.5,176.667 296.5,176.333 297.5,176C 295.421,173.623 293.088,172.457 290.5,172.5C 286.944,171.26 283.444,169.927 280,168.5C 275.429,169.322 271.096,169.656 267,169.5C 266.333,168.5 266.333,167.5 267,166.5C 270,166.833 273,167.167 276,167.5C 276.273,165.671 277.107,164.171 278.5,163C 277.044,162.577 276.544,161.744 277,160.5C 278.808,160.888 280.475,160.888 282,160.5C 284.674,162.871 287.841,164.037 291.5,164C 290.112,164.889 290.278,165.389 292,165.5C 295.01,163.817 298.01,162.15 301,160.5C 301.893,161.711 302.726,161.711 303.5,160.5C 302.975,159.808 302.308,159.308 301.5,159C 305.531,157.685 309.531,157.185 313.5,157.5C 315.774,156.032 317.774,154.198 319.5,152C 318.552,151.517 317.552,151.351 316.5,151.5C 316.413,148.402 316.913,148.068 318,150.5C 319.333,149.833 320.333,148.833 321,147.5C 321.333,148.167 321.667,148.833 322,149.5C 322.667,148.167 322.667,146.833 322,145.5C 321.667,145.833 321.333,146.167 321,146.5C 318.678,143.216 319.511,141.049 323.5,140C 320.833,138.333 320.833,136.667 323.5,135C 322.194,132.427 320.527,130.094 318.5,128C 319.428,127.612 320.095,126.945 320.5,126C 319.873,123.865 319.373,121.698 319,119.5C 316.175,118.416 316.008,117.249 318.5,116C 315.813,114.659 314.147,112.993 313.5,111C 315.973,109.598 315.973,108.098 313.5,106.5C 313.709,105.914 314.043,105.414 314.5,105C 311.701,104.561 310.701,103.228 311.5,101C 308.062,95.6767 304.562,91.1767 301,87.5C 298.851,83.6859 296.017,80.5192 292.5,78C 292.957,77.586 293.291,77.086 293.5,76.5C 290.092,75.9013 287.092,74.5679 284.5,72.5C 284.027,71.0937 283.027,70.427 281.5,70.5C 257.337,69.3368 233.003,69.1701 208.5,70C 207.601,71.6516 206.601,73.1516 205.5,74.5C 205.461,73.4168 205.127,72.4168 204.5,71.5C 202.505,70.7055 200.505,70.0388 198.5,69.5C 186.833,68.1667 175.167,68.1667 163.5,69.5C 150.84,70.4325 138.84,73.7659 127.5,79.5C 126.127,79.3433 124.793,79.51 123.5,80C 120.656,81.3799 117.99,82.8799 115.5,84.5C 115.649,83.448 115.483,82.448 115,81.5C 112.695,81.579 110.195,81.7457 107.5,82C 108.865,83.6819 110.365,83.8486 112,82.5C 114.127,83.3972 114.627,84.7305 113.5,86.5C 110.115,89.3628 106.448,92.8628 102.5,97C 101.24,98.113 100.073,98.2797 99,97.5C 98.51,98.7932 98.3433,100.127 98.5,101.5C 95.4775,101.105 94.4775,102.105 95.5,104.5C 94.8946,106.481 93.8946,106.815 92.5,105.5C 89.8333,106.5 89.8333,107.5 92.5,108.5C 86.8041,115.545 83.1375,123.212 81.5,131.5C 81.5,132.167 81.1667,132.5 80.5,132.5C 79.4415,133.6 78.6082,134.934 78,136.5C 77.7508,135.376 77.2508,134.376 76.5,133.5C 75.0722,135.655 74.7389,137.821 75.5,140C 73.5571,143.332 72.3905,143.166 72,139.5C 71.2797,141.112 71.4464,142.612 72.5,144C 71.8333,144.333 71.1667,144.667 70.5,145C 70.6398,146.597 70.6398,148.097 70.5,149.5C 69.5,150.333 68.5,151.167 67.5,152C 69.2112,153.133 69.7112,154.633 69,156.5C 68,156.833 67,157.167 66,157.5C 65.6892,159.556 65.1892,161.556 64.5,163.5C 63.302,163.94 62.1353,164.273 61,164.5C 60.3162,165.784 60.4829,166.951 61.5,168C 59.2274,170.966 57.2274,174.133 55.5,177.5C 56.8806,180.765 56.3806,183.765 54,186.5C 53.6667,186.167 53.3333,185.833 53,185.5C 52.6667,187.167 52.3333,188.833 52,190.5C 51.1072,189.289 50.2739,189.289 49.5,190.5C 50.5748,193.438 50.7415,196.438 50,199.5C 48.0498,202.348 46.8831,205.514 46.5,209C 47.2613,219.345 47.928,229.845 48.5,240.5C 52.1394,241.112 53.1394,243.112 51.5,246.5C 53.1093,250.738 54.4426,255.072 55.5,259.5C 57.9424,259.354 58.6091,260.187 57.5,262C 62.8769,269.222 67.2102,277.055 70.5,285.5C 71.1924,284.975 71.6924,284.308 72,283.5C 72.1992,285.402 73.0325,286.902 74.5,288C 73.6667,288.833 72.8333,289.667 72,290.5C 71.1072,289.289 70.2739,289.289 69.5,290.5C 71.5624,292.901 73.2291,295.567 74.5,298.5C 72.8333,299.167 71.1667,299.833 69.5,300.5C 70.5,301.5 71.5,302.5 72.5,303.5C 73.1919,306.145 74.1919,308.645 75.5,311C 74.8333,311.667 74.1667,312.333 73.5,313C 74.4664,315.099 75.7997,316.932 77.5,318.5C 77.2176,320.987 77.2176,323.653 77.5,326.5C 78.552,326.351 79.552,326.517 80.5,327C 80.1667,327.333 79.8333,327.667 79.5,328C 80.1905,329.067 80.6905,330.234 81,331.5C 83.4148,332.411 84.9148,334.078 85.5,336.5C 44.0584,310.69 17.0584,274.023 4.5,226.5C 2.70751,218.051 1.04085,209.718 -0.5,201.5C -0.5,188.5 -0.5,175.5 -0.5,162.5C 11.7405,84.7529 55.0739,32.9196 129.5,7C 142.435,3.40327 155.435,0.903271 168.5,-0.5 Z"/></g>
<g><path style="opacity:1" fill="#7f8679" d="M 163.5,69.5 C 175.167,68.1667 186.833,68.1667 198.5,69.5C 198.5,70.1667 198.167,70.5 197.5,70.5C 186.346,69.5052 175.012,69.1719 163.5,69.5 Z"/></g>
<g><path style="opacity:1" fill="#f2eef1" d="M 163.5,69.5 C 175.012,69.1719 186.346,69.5052 197.5,70.5C 193.45,78.0537 188.783,85.2203 183.5,92C 178.177,92.4994 172.844,92.666 167.5,92.5C 171.647,91.6753 175.981,91.1753 180.5,91C 179.833,90.6667 179.167,90.3333 178.5,90C 180.608,89.6401 182.608,88.9734 184.5,88C 181.84,86.3426 181.84,84.6759 184.5,83C 184.265,82.1268 183.931,81.2935 183.5,80.5C 184.833,79.8333 186.167,79.1667 187.5,78.5C 186.697,75.9455 187.697,74.1122 190.5,73C 188.884,71.9229 187.051,71.4229 185,71.5C 178.452,72.487 172.119,72.487 166,71.5C 159.912,72.883 153.745,74.0497 147.5,75C 143.583,77.6557 139.25,79.3224 134.5,80C 133.874,80.7504 133.374,81.5838 133,82.5C 132.667,82.1667 132.333,81.8333 132,81.5C 129.156,82.9256 126.322,84.4256 123.5,86C 121.715,88.3444 120.382,90.8444 119.5,93.5C 116.753,93.1866 114.086,93.52 111.5,94.5C 107.402,97.9696 103.735,101.97 100.5,106.5C 97.8994,107.575 95.5661,108.909 93.5,110.5C 102.335,97.3274 113.668,86.994 127.5,79.5C 138.84,73.7659 150.84,70.4325 163.5,69.5 Z"/></g>
<g><path style="opacity:1" fill="#f8f8f9" d="M 281.5,70.5 C 278.911,71.4194 276.911,73.086 275.5,75.5C 275.167,75.5 274.833,75.5 274.5,75.5C 268.741,80.0824 263.074,84.9158 257.5,90C 257.833,90.3333 258.167,90.6667 258.5,91C 248.5,91.1667 238.5,91.3333 228.5,91.5C 218.144,91.4986 208.144,90.8319 198.5,89.5C 201.09,84.6511 203.424,79.6511 205.5,74.5C 206.601,73.1516 207.601,71.6516 208.5,70C 233.003,69.1701 257.337,69.3368 281.5,70.5 Z"/></g>
<g><path style="opacity:1" fill="#1b1b1b" d="M 281.5,70.5 C 283.027,70.427 284.027,71.0937 284.5,72.5C 285.752,74.0009 286.752,75.6675 287.5,77.5C 287.557,78.609 287.89,79.609 288.5,80.5C 290.263,84.9782 291.263,89.6449 291.5,94.5C 289.058,94.3537 288.391,95.187 289.5,97C 287.259,98.7391 285.592,100.906 284.5,103.5C 283.271,104.281 281.938,104.781 280.5,105C 283.332,106.908 282.999,107.741 279.5,107.5C 279.509,109.308 279.009,110.975 278,112.5C 277.667,111.833 277.333,111.167 277,110.5C 275.649,112.019 274.149,113.352 272.5,114.5C 273.641,115.425 273.641,116.259 272.5,117C 264.704,119.983 256.871,122.817 249,125.5C 248.667,125.167 248.333,124.833 248,124.5C 244.709,125.483 241.543,126.817 238.5,128.5C 237.914,128.291 237.414,127.957 237,127.5C 234.215,131.413 231.382,131.413 228.5,127.5C 224.147,127.705 219.814,128.038 215.5,128.5C 216.665,129.584 217.998,130.417 219.5,131C 218.167,131.667 218.167,132.333 219.5,133C 218.069,133.465 216.903,134.299 216,135.5C 212.48,131.989 208.314,129.989 203.5,129.5C 203.426,127.589 202.426,126.422 200.5,126C 196.204,125.466 192.204,124.3 188.5,122.5C 181.418,122.616 174.751,123.616 168.5,125.5C 168.167,125.5 167.833,125.5 167.5,125.5C 157.657,125.586 149.991,129.586 144.5,137.5C 138.384,143.399 134.051,150.399 131.5,158.5C 129.989,160.476 129.156,162.809 129,165.5C 127.412,176.946 128.912,187.946 133.5,198.5C 132.046,199.52 131.713,200.687 132.5,202C 131.328,202.419 130.328,203.085 129.5,204C 133.526,203.382 134.193,204.715 131.5,208C 132.5,208.333 133.5,208.667 134.5,209C 132.757,213.011 134.09,215.511 138.5,216.5C 138.71,220.38 140.71,222.047 144.5,221.5C 144.569,224.084 145.735,226.084 148,227.5C 149.016,226.366 149.683,226.699 150,228.5C 150.333,227.833 150.667,227.167 151,226.5C 152.033,229.033 153.867,230.699 156.5,231.5C 157.965,230.391 158.965,230.891 159.5,233C 163.243,233.705 166.576,235.205 169.5,237.5C 172.414,236.596 175.247,236.929 178,238.5C 178.333,238.167 178.667,237.833 179,237.5C 183.597,238.311 187.93,238.978 192,239.5C 196.846,237.912 201.68,236.246 206.5,234.5C 212.16,230.84 216.826,226.174 220.5,220.5C 219.64,218.069 217.973,216.736 215.5,216.5C 216.167,215.833 216.833,215.167 217.5,214.5C 218.496,201.344 218.829,188.01 218.5,174.5C 205.5,174.5 192.5,174.5 179.5,174.5C 179.5,181.167 179.5,187.833 179.5,194.5C 184.833,194.5 190.167,194.5 195.5,194.5C 195.5,197.5 195.5,200.5 195.5,203.5C 186.085,203.792 176.752,203.125 167.5,201.5C 165.517,200.529 163.517,199.529 161.5,198.5C 158.772,195.101 156.439,191.434 154.5,187.5C 155.822,187.33 156.989,187.663 158,188.5C 158.575,181.474 160.408,174.808 163.5,168.5C 166.167,166.5 168.5,164.167 170.5,161.5C 173.709,160.472 176.542,158.805 179,156.5C 179.414,156.957 179.914,157.291 180.5,157.5C 182.957,155.775 185.623,155.275 188.5,156C 193.565,159.04 198.899,161.206 204.5,162.5C 204.343,163.873 204.51,165.207 205,166.5C 207.425,165.383 209.591,163.883 211.5,162C 209.41,161.331 207.743,160.164 206.5,158.5C 207.239,158.631 207.906,158.464 208.5,158C 210.334,155.337 212.334,152.837 214.5,150.5C 218.65,150.147 221.316,151.98 222.5,156C 221.24,157.113 220.073,157.28 219,156.5C 218.634,161.132 216.467,164.632 212.5,167C 213.451,167.718 213.617,168.551 213,169.5C 211.769,168.892 210.436,168.559 209,168.5C 198.355,170.685 188.021,170.352 178,167.5C 176.391,168.147 174.891,168.98 173.5,170C 175.137,171.951 176.637,171.784 178,169.5C 178.308,170.308 178.808,170.975 179.5,171.5C 179.833,170.833 180.167,170.167 180.5,169.5C 181.386,170.325 181.719,171.325 181.5,172.5C 194.31,172.099 206.977,172.099 219.5,172.5C 219.338,174.527 219.505,176.527 220,178.5C 220.887,175.292 222.553,175.292 225,178.5C 225.333,178.167 225.667,177.833 226,177.5C 226.759,185.098 227.759,192.431 229,199.5C 229.181,196.305 229.681,193.305 230.5,190.5C 230.194,193.385 230.527,196.052 231.5,198.5C 241.167,198.5 250.833,198.5 260.5,198.5C 260.453,201.969 259.787,205.302 258.5,208.5C 257.71,207.391 257.21,206.058 257,204.5C 256.667,204.833 256.333,205.167 256,205.5C 254.599,203.808 252.766,203.141 250.5,203.5C 250.286,205.144 250.62,206.644 251.5,208C 247.439,208.184 243.272,208.017 239,207.5C 234.673,207.975 230.506,208.975 226.5,210.5C 228.216,210.997 229.883,211.331 231.5,211.5C 230.167,212.167 228.833,212.833 227.5,213.5C 228.167,214.167 228.833,214.833 229.5,215.5C 228.358,217.378 227.358,219.212 226.5,221C 226.957,221.414 227.291,221.914 227.5,222.5C 225.869,224.22 224.703,226.22 224,228.5C 223.667,228.167 223.333,227.833 223,227.5C 221.98,231.169 220.313,234.503 218,237.5C 216.89,239.037 215.39,239.703 213.5,239.5C 213.5,241.167 213.5,242.833 213.5,244.5C 211.712,244.215 210.045,244.548 208.5,245.5C 209.376,246.251 210.376,246.751 211.5,247C 209.5,247.333 207.5,247.667 205.5,248C 204.498,249.672 203.332,250.838 202,251.5C 201.667,251.167 201.333,250.833 201,250.5C 202.114,252.669 201.614,254.502 199.5,256C 199.833,256.333 200.167,256.667 200.5,257C 198.907,259.406 197.24,261.906 195.5,264.5C 195.709,265.086 196.043,265.586 196.5,266C 194.564,266.813 192.564,267.313 190.5,267.5C 190.918,266.778 191.584,266.278 192.5,266C 191.286,263.649 190.452,261.149 190,258.5C 188.583,256.602 187.083,254.936 185.5,253.5C 185.5,252.167 184.833,251.5 183.5,251.5C 177.889,249.861 171.889,248.861 165.5,248.5C 154.472,245.214 143.805,241.047 133.5,236C 131.294,233.963 129.294,231.797 127.5,229.5C 125.333,228.802 123.5,227.469 122,225.5C 121.607,223.801 122.107,222.301 123.5,221C 123.095,220.055 122.428,219.388 121.5,219C 121.833,218.667 122.167,218.333 122.5,218C 120.999,216.748 119.332,215.748 117.5,215C 118.167,214.667 118.833,214.333 119.5,214C 117.615,211.77 116.115,209.27 115,206.5C 114.346,207.696 113.846,207.696 113.5,206.5C 114.953,204.356 114.62,202.523 112.5,201C 113.167,200.667 113.833,200.333 114.5,200C 112.464,197.5 112.13,194.833 113.5,192C 113,191.5 112.5,191 112,190.5C 111.769,184.629 111.269,178.796 110.5,173C 111.022,172.05 111.689,171.216 112.5,170.5C 112.083,166.17 111.749,162.17 111.5,158.5C 112.907,155.719 114.24,152.886 115.5,150C 115.167,149.667 114.833,149.333 114.5,149C 116.904,148.492 117.571,147.325 116.5,145.5C 119.954,140.045 122.787,134.712 125,129.5C 125.333,129.833 125.667,130.167 126,130.5C 129.085,127.585 131.585,124.251 133.5,120.5C 136.289,119.636 138.622,118.136 140.5,116C 144.626,113.378 148.96,112.544 153.5,113.5C 153.343,112.127 153.51,110.793 154,109.5C 156.893,109.047 159.893,109.047 163,109.5C 163.833,108.667 164.667,107.833 165.5,107C 177.342,105.562 189.009,104.062 200.5,102.5C 210.391,103.103 220.225,103.77 230,104.5C 235.333,103.833 240.667,103.167 246,102.5C 251.14,103.075 255.973,103.408 260.5,103.5C 265.225,100.403 270.225,97.9026 275.5,96C 274.663,94.9887 274.33,93.8221 274.5,92.5C 273.451,90.4372 273.784,88.4372 275.5,86.5C 276.086,86.7093 276.586,87.0426 277,87.5C 277.333,86.1667 277.667,84.8333 278,83.5C 279.683,80.554 281.85,78.054 284.5,76C 284.095,75.0546 283.428,74.3879 282.5,74C 283.706,72.9823 283.373,72.4823 281.5,72.5C 279.489,73.5186 277.489,74.5186 275.5,75.5C 276.911,73.086 278.911,71.4194 281.5,70.5 Z"/></g>
<g><path style="opacity:1" fill="#222222" d="M 288.5,80.5 C 289.496,80.4142 290.329,80.7476 291,81.5C 295.853,88.677 297.353,96.177 295.5,104C 296.167,104.333 296.833,104.667 297.5,105C 294.895,107.339 294.562,109.672 296.5,112C 293.041,111.266 292.707,112.266 295.5,115C 292.3,117.543 289.8,120.709 288,124.5C 285.036,127.288 281.87,129.954 278.5,132.5C 277.035,131.391 276.035,131.891 275.5,134C 271.61,134.936 267.943,136.436 264.5,138.5C 263.393,137.978 262.226,137.645 261,137.5C 252.004,140.09 243.17,142.923 234.5,146C 233.396,148.772 231.563,150.938 229,152.5C 229.056,155.245 227.889,157.745 225.5,160C 227.922,162.112 227.922,164.112 225.5,166C 227.32,166.979 228.487,168.479 229,170.5C 230.268,170.384 231.602,170.051 233,169.5C 233.483,170.448 233.649,171.448 233.5,172.5C 231.833,172.5 230.167,172.5 228.5,172.5C 228.285,174.179 228.952,175.179 230.5,175.5C 230.5,180.5 230.5,185.5 230.5,190.5C 229.681,193.305 229.181,196.305 229,199.5C 227.759,192.431 226.759,185.098 226,177.5C 225.667,177.833 225.333,178.167 225,178.5C 222.553,175.292 220.887,175.292 220,178.5C 219.505,176.527 219.338,174.527 219.5,172.5C 206.977,172.099 194.31,172.099 181.5,172.5C 181.719,171.325 181.386,170.325 180.5,169.5C 180.167,170.167 179.833,170.833 179.5,171.5C 178.808,170.975 178.308,170.308 178,169.5C 176.637,171.784 175.137,171.951 173.5,170C 174.891,168.98 176.391,168.147 178,167.5C 188.021,170.352 198.355,170.685 209,168.5C 210.436,168.559 211.769,168.892 213,169.5C 213.617,168.551 213.451,167.718 212.5,167C 216.467,164.632 218.634,161.132 219,156.5C 220.073,157.28 221.24,157.113 222.5,156C 221.316,151.98 218.65,150.147 214.5,150.5C 216.619,147.766 218.619,144.933 220.5,142C 215.507,136.845 209.841,132.678 203.5,129.5C 208.314,129.989 212.48,131.989 216,135.5C 216.903,134.299 218.069,133.465 219.5,133C 218.167,132.333 218.167,131.667 219.5,131C 217.998,130.417 216.665,129.584 215.5,128.5C 219.814,128.038 224.147,127.705 228.5,127.5C 231.382,131.413 234.215,131.413 237,127.5C 237.414,127.957 237.914,128.291 238.5,128.5C 241.543,126.817 244.709,125.483 248,124.5C 248.333,124.833 248.667,125.167 249,125.5C 256.871,122.817 264.704,119.983 272.5,117C 273.641,116.259 273.641,115.425 272.5,114.5C 274.149,113.352 275.649,112.019 277,110.5C 277.333,111.167 277.667,111.833 278,112.5C 279.009,110.975 279.509,109.308 279.5,107.5C 282.999,107.741 283.332,106.908 280.5,105C 281.938,104.781 283.271,104.281 284.5,103.5C 285.592,100.906 287.259,98.7391 289.5,97C 288.391,95.187 289.058,94.3537 291.5,94.5C 291.263,89.6449 290.263,84.9782 288.5,80.5 Z"/></g>
<g><path style="opacity:1" fill="#282828" d="M 287.5,77.5 C 293.895,80.919 298.228,86.2523 300.5,93.5C 301.376,94.2508 302.376,94.7508 303.5,95C 302.216,97.6337 302.882,99.8004 305.5,101.5C 305.291,102.086 304.957,102.586 304.5,103C 305.623,106.159 306.956,109.159 308.5,112C 307.167,114.333 307.167,116.667 308.5,119C 307.5,120 306.5,121 305.5,122C 306.578,122.674 307.245,123.674 307.5,125C 306.429,127.424 305.429,129.924 304.5,132.5C 303.28,133.711 302.113,133.711 301,132.5C 299.244,133.421 299.077,134.588 300.5,136C 299.978,140.058 297.978,143.058 294.5,145C 288.937,146.538 283.27,147.538 277.5,148C 279.271,148.535 279.604,149.369 278.5,150.5C 275.256,147.957 272.089,147.957 269,150.5C 265.541,149.578 262.041,149.745 258.5,151C 259.167,151.333 259.833,151.667 260.5,152C 259.234,152.309 258.067,152.809 257,153.5C 255.853,152.542 254.853,152.875 254,154.5C 253.667,154.167 253.333,153.833 253,153.5C 250.07,156.1 246.236,157.933 241.5,159C 242.364,160.137 243.364,161.47 244.5,163C 242.392,163.36 240.392,164.027 238.5,165C 239.784,165.684 240.951,165.517 242,164.5C 242.667,165.833 242.667,167.167 242,168.5C 241.086,167.346 240.253,167.513 239.5,169C 242.3,170.232 245.3,170.899 248.5,171C 246.956,171.29 245.623,171.956 244.5,173C 258.167,173.333 271.833,173.667 285.5,174C 266.995,174.168 248.662,174.668 230.5,175.5C 228.952,175.179 228.285,174.179 228.5,172.5C 230.167,172.5 231.833,172.5 233.5,172.5C 233.649,171.448 233.483,170.448 233,169.5C 231.602,170.051 230.268,170.384 229,170.5C 228.487,168.479 227.32,166.979 225.5,166C 227.922,164.112 227.922,162.112 225.5,160C 227.889,157.745 229.056,155.245 229,152.5C 231.563,150.938 233.396,148.772 234.5,146C 243.17,142.923 252.004,140.09 261,137.5C 262.226,137.645 263.393,137.978 264.5,138.5C 267.943,136.436 271.61,134.936 275.5,134C 276.035,131.891 277.035,131.391 278.5,132.5C 281.87,129.954 285.036,127.288 288,124.5C 289.8,120.709 292.3,117.543 295.5,115C 292.707,112.266 293.041,111.266 296.5,112C 294.562,109.672 294.895,107.339 297.5,105C 296.833,104.667 296.167,104.333 295.5,104C 297.353,96.177 295.853,88.677 291,81.5C 290.329,80.7476 289.496,80.4142 288.5,80.5C 287.89,79.609 287.557,78.609 287.5,77.5 Z"/></g>
<g><path style="opacity:1" fill="#2e352a" d="M 127.5,79.5 C 113.668,86.994 102.335,97.3274 93.5,110.5C 88.2371,116.682 84.2371,123.682 81.5,131.5C 83.1375,123.212 86.8041,115.545 92.5,108.5C 89.8333,107.5 89.8333,106.5 92.5,105.5C 93.8946,106.815 94.8946,106.481 95.5,104.5C 94.4775,102.105 95.4775,101.105 98.5,101.5C 98.3433,100.127 98.51,98.7932 99,97.5C 100.073,98.2797 101.24,98.113 102.5,97C 106.448,92.8628 110.115,89.3628 113.5,86.5C 114.627,84.7305 114.127,83.3972 112,82.5C 110.365,83.8486 108.865,83.6819 107.5,82C 110.195,81.7457 112.695,81.579 115,81.5C 115.483,82.448 115.649,83.448 115.5,84.5C 117.99,82.8799 120.656,81.3799 123.5,80C 124.793,79.51 126.127,79.3433 127.5,79.5 Z"/></g>
<g><path style="opacity:1" fill="#0f0f0f" d="M 198.5,69.5 C 200.505,70.0388 202.505,70.7055 204.5,71.5C 205.127,72.4168 205.461,73.4168 205.5,74.5C 203.424,79.6511 201.09,84.6511 198.5,89.5C 197.596,90.209 197.263,91.209 197.5,92.5C 218.169,92.6666 238.836,92.5 259.5,92C 265.076,86.9287 270.076,81.4287 274.5,75.5C 274.833,75.5 275.167,75.5 275.5,75.5C 277.489,74.5186 279.489,73.5186 281.5,72.5C 283.373,72.4823 283.706,72.9823 282.5,74C 283.428,74.3879 284.095,75.0546 284.5,76C 281.85,78.054 279.683,80.554 278,83.5C 277.667,84.8333 277.333,86.1667 277,87.5C 276.586,87.0426 276.086,86.7093 275.5,86.5C 273.784,88.4372 273.451,90.4372 274.5,92.5C 273.504,92.5858 272.671,92.2524 272,91.5C 268.472,94.6874 264.639,97.5207 260.5,100C 237.348,100.655 214.348,100.489 191.5,99.5C 186.943,100.078 182.443,100.745 178,101.5C 177.275,100.941 176.442,100.608 175.5,100.5C 168.485,102.775 161.485,104.275 154.5,105C 149.159,108.231 143.492,110.898 137.5,113C 130.482,117.351 124.816,123.018 120.5,130C 120.833,130.333 121.167,130.667 121.5,131C 118.186,132.978 116.019,135.811 115,139.5C 114.667,139.167 114.333,138.833 114,138.5C 112.754,142.254 111.254,145.921 109.5,149.5C 108.975,150.192 108.308,150.692 107.5,151C 108.357,151.689 109.023,152.522 109.5,153.5C 107.832,156.96 106.665,160.627 106,164.5C 105.67,171.589 105.503,178.589 105.5,185.5C 108.739,188.265 109.072,191.265 106.5,194.5C 108.162,196.311 108.328,197.978 107,199.5C 106.667,198.833 106.333,198.167 106,197.5C 105.768,198.737 105.268,199.737 104.5,200.5C 90.0317,158.403 101.365,125.236 138.5,101C 147.673,96.457 157.34,93.6237 167.5,92.5C 172.844,92.666 178.177,92.4994 183.5,92C 188.783,85.2203 193.45,78.0537 197.5,70.5C 198.167,70.5 198.5,70.1667 198.5,69.5 Z"/></g>
<g><path style="opacity:1" fill="#d3d3d6" d="M 274.5,75.5 C 270.076,81.4287 265.076,86.9287 259.5,92C 238.836,92.5 218.169,92.6666 197.5,92.5C 197.263,91.209 197.596,90.209 198.5,89.5C 208.144,90.8319 218.144,91.4986 228.5,91.5C 238.5,91.3333 248.5,91.1667 258.5,91C 258.167,90.6667 257.833,90.3333 257.5,90C 263.074,84.9158 268.741,80.0824 274.5,75.5 Z"/></g>
<g><path style="opacity:1" fill="#151615" d="M 274.5,92.5 C 274.33,93.8221 274.663,94.9887 275.5,96C 270.225,97.9026 265.225,100.403 260.5,103.5C 255.973,103.408 251.14,103.075 246,102.5C 240.667,103.167 235.333,103.833 230,104.5C 220.225,103.77 210.391,103.103 200.5,102.5C 189.009,104.062 177.342,105.562 165.5,107C 164.667,107.833 163.833,108.667 163,109.5C 159.893,109.047 156.893,109.047 154,109.5C 153.51,110.793 153.343,112.127 153.5,113.5C 148.96,112.544 144.626,113.378 140.5,116C 138.622,118.136 136.289,119.636 133.5,120.5C 131.585,124.251 129.085,127.585 126,130.5C 125.667,130.167 125.333,129.833 125,129.5C 122.787,134.712 119.954,140.045 116.5,145.5C 117.571,147.325 116.904,148.492 114.5,149C 114.833,149.333 115.167,149.667 115.5,150C 114.24,152.886 112.907,155.719 111.5,158.5C 111.749,162.17 112.083,166.17 112.5,170.5C 111.689,171.216 111.022,172.05 110.5,173C 111.269,178.796 111.769,184.629 112,190.5C 112.5,191 113,191.5 113.5,192C 112.13,194.833 112.464,197.5 114.5,200C 113.833,200.333 113.167,200.667 112.5,201C 114.62,202.523 114.953,204.356 113.5,206.5C 113.846,207.696 114.346,207.696 115,206.5C 116.115,209.27 117.615,211.77 119.5,214C 118.833,214.333 118.167,214.667 117.5,215C 119.332,215.748 120.999,216.748 122.5,218C 122.167,218.333 121.833,218.667 121.5,219C 122.428,219.388 123.095,220.055 123.5,221C 122.107,222.301 121.607,223.801 122,225.5C 123.5,227.469 125.333,228.802 127.5,229.5C 126.5,229.5 125.5,229.5 124.5,229.5C 115.613,221.403 108.947,211.737 104.5,200.5C 105.268,199.737 105.768,198.737 106,197.5C 106.333,198.167 106.667,198.833 107,199.5C 108.328,197.978 108.162,196.311 106.5,194.5C 109.072,191.265 108.739,188.265 105.5,185.5C 105.503,178.589 105.67,171.589 106,164.5C 106.665,160.627 107.832,156.96 109.5,153.5C 109.023,152.522 108.357,151.689 107.5,151C 108.308,150.692 108.975,150.192 109.5,149.5C 111.254,145.921 112.754,142.254 114,138.5C 114.333,138.833 114.667,139.167 115,139.5C 116.019,135.811 118.186,132.978 121.5,131C 121.167,130.667 120.833,130.333 120.5,130C 124.816,123.018 130.482,117.351 137.5,113C 143.492,110.898 149.159,108.231 154.5,105C 161.485,104.275 168.485,102.775 175.5,100.5C 176.442,100.608 177.275,100.941 178,101.5C 182.443,100.745 186.943,100.078 191.5,99.5C 214.348,100.489 237.348,100.655 260.5,100C 264.639,97.5207 268.472,94.6874 272,91.5C 272.671,92.2524 273.504,92.5858 274.5,92.5 Z"/></g>
<g><path style="opacity:1" fill="#162014" d="M 203.5,129.5 C 192.207,124.817 180.541,123.483 168.5,125.5C 174.751,123.616 181.418,122.616 188.5,122.5C 192.204,124.3 196.204,125.466 200.5,126C 202.426,126.422 203.426,127.589 203.5,129.5 Z"/></g>
<g><path style="opacity:1" fill="#152311" d="M 167.5,125.5 C 158.917,127.626 151.251,131.626 144.5,137.5C 149.991,129.586 157.657,125.586 167.5,125.5 Z"/></g>
<g><path style="opacity:1" fill="#f2f1f3" d="M 203.5,129.5 C 209.841,132.678 215.507,136.845 220.5,142C 218.619,144.933 216.619,147.766 214.5,150.5C 212.334,152.837 210.334,155.337 208.5,158C 207.906,158.464 207.239,158.631 206.5,158.5C 201.979,154.409 196.979,151.076 191.5,148.5C 172.1,144.114 158.934,151.114 152,169.5C 151.333,172.833 151.333,176.167 152,179.5C 153.144,182.08 153.978,184.747 154.5,187.5C 156.439,191.434 158.772,195.101 161.5,198.5C 160.325,198.719 159.325,198.386 158.5,197.5C 157.459,195.415 155.959,193.748 154,192.5C 154.833,189.172 153.333,187.839 149.5,188.5C 149.958,185.606 149.291,183.106 147.5,181C 148.428,180.612 149.095,179.945 149.5,179C 149.376,175.988 149.209,172.821 149,169.5C 148,169.5 147,169.5 146,169.5C 145.667,170.833 145.333,172.167 145,173.5C 144.186,171.718 143.019,170.218 141.5,169C 143.994,166.607 143.327,165.44 139.5,165.5C 141.358,162.369 140.691,159.869 137.5,158C 138.793,157.51 140.127,157.343 141.5,157.5C 141.656,153.865 142.822,153.532 145,156.5C 145.5,156 146,155.5 146.5,155C 145.139,153.416 144.472,151.582 144.5,149.5C 143.5,149.5 142.5,149.5 141.5,149.5C 141.714,153.257 140.714,153.924 138.5,151.5C 137.914,151.709 137.414,152.043 137,152.5C 136.83,154.715 136.163,156.715 135,158.5C 133.927,158.799 132.76,158.799 131.5,158.5C 134.051,150.399 138.384,143.399 144.5,137.5C 151.251,131.626 158.917,127.626 167.5,125.5C 167.833,125.5 168.167,125.5 168.5,125.5C 180.541,123.483 192.207,124.817 203.5,129.5 Z"/></g>
<g><path style="opacity:1" fill="#f9f9f9" d="M 191.5,148.5 C 191.883,145.538 190.883,144.538 188.5,145.5C 187.808,144.975 187.308,144.308 187,143.5C 180.292,143.583 174.125,143.583 168.5,143.5C 167.808,144.025 167.308,144.692 167,145.5C 166.667,145.167 166.333,144.833 166,144.5C 164.562,145.9 163.729,147.567 163.5,149.5C 161.169,149.498 159.169,150.331 157.5,152C 155.858,155.301 153.525,157.968 150.5,160C 148.799,160.345 147.466,159.678 146.5,158C 147.793,157.51 149.127,157.343 150.5,157.5C 149.86,154.226 148.193,151.559 145.5,149.5C 146.297,147.868 147.297,146.368 148.5,145C 148.012,143.416 147.012,142.249 145.5,141.5C 147.968,139.534 150.301,137.368 152.5,135C 157.47,132.29 162.636,131.457 168,132.5C 168.5,131.5 169,130.5 169.5,129.5C 173.38,128.205 177.214,128.205 181,129.5C 181.667,128.833 182.333,128.167 183,127.5C 188.2,127.837 193.034,129.337 197.5,132C 196.241,132.923 194.908,133.757 193.5,134.5C 195.894,135.349 198.227,136.349 200.5,137.5C 201.551,136.115 202.884,135.115 204.5,134.5C 208.676,137.088 212.676,139.921 216.5,143C 213.339,145.158 210.173,147.325 207,149.5C 206.667,148.833 206.333,148.167 206,147.5C 205.333,148.833 204.333,149.833 203,150.5C 200.929,149.475 198.762,148.642 196.5,148C 196.07,147.08 195.736,146.247 195.5,145.5C 194.717,147.288 193.384,148.288 191.5,148.5 Z"/></g>
<g><path style="opacity:0.985" fill="#2e2e2e" d="M 284.5,72.5 C 287.092,74.5679 290.092,75.9013 293.5,76.5C 293.291,77.086 292.957,77.586 292.5,78C 296.017,80.5192 298.851,83.6859 301,87.5C 304.562,91.1767 308.062,95.6767 311.5,101C 310.701,103.228 311.701,104.561 314.5,105C 314.043,105.414 313.709,105.914 313.5,106.5C 315.973,108.098 315.973,109.598 313.5,111C 314.147,112.993 315.813,114.659 318.5,116C 316.008,117.249 316.175,118.416 319,119.5C 319.373,121.698 319.873,123.865 320.5,126C 320.095,126.945 319.428,127.612 318.5,128C 320.527,130.094 322.194,132.427 323.5,135C 320.833,136.667 320.833,138.333 323.5,140C 319.511,141.049 318.678,143.216 321,146.5C 321.333,146.167 321.667,145.833 322,145.5C 322.667,146.833 322.667,148.167 322,149.5C 321.667,148.833 321.333,148.167 321,147.5C 320.333,148.833 319.333,149.833 318,150.5C 316.913,148.068 316.413,148.402 316.5,151.5C 317.552,151.351 318.552,151.517 319.5,152C 317.774,154.198 315.774,156.032 313.5,157.5C 309.531,157.185 305.531,157.685 301.5,159C 302.308,159.308 302.975,159.808 303.5,160.5C 302.726,161.711 301.893,161.711 301,160.5C 298.01,162.15 295.01,163.817 292,165.5C 290.278,165.389 290.112,164.889 291.5,164C 287.841,164.037 284.674,162.871 282,160.5C 280.475,160.888 278.808,160.888 277,160.5C 276.544,161.744 277.044,162.577 278.5,163C 277.107,164.171 276.273,165.671 276,167.5C 273,167.167 270,166.833 267,166.5C 266.333,167.5 266.333,168.5 267,169.5C 271.096,169.656 275.429,169.322 280,168.5C 283.444,169.927 286.944,171.26 290.5,172.5C 293.088,172.457 295.421,173.623 297.5,176C 296.5,176.333 295.5,176.667 294.5,177C 295.253,178.487 296.086,178.654 297,177.5C 298,178.833 299,180.167 300,181.5C 300.333,181.167 300.667,180.833 301,180.5C 301.595,181.899 301.428,183.232 300.5,184.5C 302.567,184.85 303.567,186.517 303.5,189.5C 304.873,189.343 306.207,189.51 307.5,190C 307.167,190.333 306.833,190.667 306.5,191C 307.253,192.487 308.086,192.654 309,191.5C 310,193.5 311,195.5 312,197.5C 315.911,200.266 318.244,204.6 319,210.5C 319.9,211.77 321.066,212.77 322.5,213.5C 321.313,214.519 320.313,215.686 319.5,217C 321.225,217.865 322.892,218.531 324.5,219C 323.062,219.219 321.729,219.719 320.5,220.5C 321.025,221.192 321.692,221.692 322.5,222C 321.027,222.71 320.36,223.876 320.5,225.5C 321.5,225.5 322.5,225.5 323.5,225.5C 323.649,226.552 323.483,227.552 323,228.5C 319.534,230.181 319.7,231.181 323.5,231.5C 323.296,234.545 323.296,237.379 323.5,240C 320.93,242.718 320.93,245.385 323.5,248C 322.13,249.441 321.13,251.108 320.5,253C 321.167,253.333 321.833,253.667 322.5,254C 320.285,255.943 320.285,257.609 322.5,259C 321.027,259.71 320.36,260.876 320.5,262.5C 319.325,262.281 318.325,262.614 317.5,263.5C 319.209,268.893 318.542,274.059 315.5,279C 315.833,279.333 316.167,279.667 316.5,280C 315.458,282.557 314.125,284.89 312.5,287C 312.833,287.333 313.167,287.667 313.5,288C 310.313,290.678 309.98,293.345 312.5,296C 311.062,296.219 309.729,296.719 308.5,297.5C 306.436,301.961 304.102,306.294 301.5,310.5C 298.006,312.414 294.672,314.581 291.5,317C 293.878,317.974 293.544,318.641 290.5,319C 292.686,319.604 292.852,320.77 291,322.5C 288.023,324.153 285.523,325.819 283.5,327.5C 282.907,329.382 282.24,331.215 281.5,333C 278.833,333.333 276.167,333.667 273.5,334C 274.833,334.333 276.167,334.667 277.5,335C 274.618,336.52 271.618,337.853 268.5,339C 265.905,342.305 262.571,344.639 258.5,346C 258.728,346.399 259.062,346.565 259.5,346.5C 238.897,356.4 217.231,362.4 194.5,364.5C 185.833,364.5 177.167,364.5 168.5,364.5C 141.325,362.056 115.658,354.223 91.5,341C 89.2528,339.723 87.2528,338.223 85.5,336.5C 84.9148,334.078 83.4148,332.411 81,331.5C 80.6905,330.234 80.1905,329.067 79.5,328C 79.8333,327.667 80.1667,327.333 80.5,327C 79.552,326.517 78.552,326.351 77.5,326.5C 77.2176,323.653 77.2176,320.987 77.5,318.5C 75.7997,316.932 74.4664,315.099 73.5,313C 74.1667,312.333 74.8333,311.667 75.5,311C 74.1919,308.645 73.1919,306.145 72.5,303.5C 71.5,302.5 70.5,301.5 69.5,300.5C 71.1667,299.833 72.8333,299.167 74.5,298.5C 73.2291,295.567 71.5624,292.901 69.5,290.5C 70.2739,289.289 71.1072,289.289 72,290.5C 72.8333,289.667 73.6667,288.833 74.5,288C 73.0325,286.902 72.1992,285.402 72,283.5C 71.6924,284.308 71.1924,284.975 70.5,285.5C 67.2102,277.055 62.8769,269.222 57.5,262C 58.6091,260.187 57.9424,259.354 55.5,259.5C 54.4426,255.072 53.1093,250.738 51.5,246.5C 53.1394,243.112 52.1394,241.112 48.5,240.5C 47.928,229.845 47.2613,219.345 46.5,209C 46.8831,205.514 48.0498,202.348 50,199.5C 50.7415,196.438 50.5748,193.438 49.5,190.5C 50.2739,189.289 51.1072,189.289 52,190.5C 52.3333,188.833 52.6667,187.167 53,185.5C 53.3333,185.833 53.6667,186.167 54,186.5C 56.3806,183.765 56.8806,180.765 55.5,177.5C 57.2274,174.133 59.2274,170.966 61.5,168C 60.4829,166.951 60.3162,165.784 61,164.5C 62.1353,164.273 63.302,163.94 64.5,163.5C 65.1892,161.556 65.6892,159.556 66,157.5C 67,157.167 68,156.833 69,156.5C 69.7112,154.633 69.2112,153.133 67.5,152C 68.5,151.167 69.5,150.333 70.5,149.5C 70.6398,148.097 70.6398,146.597 70.5,145C 71.1667,144.667 71.8333,144.333 72.5,144C 71.4464,142.612 71.2797,141.112 72,139.5C 72.3905,143.166 73.5571,143.332 75.5,140C 74.7389,137.821 75.0722,135.655 76.5,133.5C 77.2508,134.376 77.7508,135.376 78,136.5C 78.6082,134.934 79.4415,133.6 80.5,132.5C 77.9995,140.831 75.9995,149.164 74.5,157.5C 72.9136,163.587 72.0803,169.92 72,176.5C 71.6667,175.5 71.3333,174.5 71,173.5C 70.3551,174.646 69.5217,175.646 68.5,176.5C 67.9574,180.934 66.6241,185.1 64.5,189C 65.1678,194.316 65.5011,199.65 65.5,205C 64.9933,208.739 64.3267,212.406 63.5,216C 67.3605,216.569 67.3605,217.402 63.5,218.5C 64.629,220.275 65.629,221.942 66.5,223.5C 63.9767,225.255 63.9767,227.089 66.5,229C 66.0946,229.945 65.428,230.612 64.5,231C 65.9806,233.762 67.6473,236.429 69.5,239C 69.0426,239.414 68.7093,239.914 68.5,240.5C 69.1892,242.444 69.6892,244.444 70,246.5C 70.3333,245.5 70.6667,244.5 71,243.5C 71.8048,248.514 73.3048,253.514 75.5,258.5C 76.9778,258.238 78.3112,258.571 79.5,259.5C 81.9166,263.059 83.5832,266.892 84.5,271C 80.6959,272.494 81.0293,273.328 85.5,273.5C 85.281,272.325 85.6143,271.325 86.5,270.5C 87.1342,272.772 88.4676,274.439 90.5,275.5C 89.0646,276.096 87.398,276.096 85.5,275.5C 84.9866,277.29 84.4866,278.956 84,280.5C 85.5581,279.655 86.5581,280.321 87,282.5C 88.129,280.859 89.629,279.859 91.5,279.5C 88.1887,283.147 84.8554,286.813 81.5,290.5C 108.492,291.5 135.492,291.833 162.5,291.5C 135.338,292.498 108.005,292.831 80.5,292.5C 79.7109,292.783 79.0442,293.283 78.5,294C 79.6843,295.145 79.6843,296.312 78.5,297.5C 79.3045,303.58 81.3045,309.246 84.5,314.5C 83.9747,315.192 83.3081,315.692 82.5,316C 83.6667,316.5 84.5,317.333 85,318.5C 85.3333,318.167 85.6667,317.833 86,317.5C 86.4561,318.744 85.9561,319.577 84.5,320C 85.5,320.333 86.5,320.667 87.5,321C 88.5,323.333 90.1667,325 92.5,326C 91.3463,326.914 91.513,327.747 93,328.5C 93.6667,327.167 94.3333,327.167 95,328.5C 95.6172,329.449 95.4506,330.282 94.5,331C 96.5,331.333 98.5,331.667 100.5,332C 100.043,332.414 99.7093,332.914 99.5,333.5C 102.357,335.568 105.19,337.568 108,339.5C 111.208,340.544 114.041,342.21 116.5,344.5C 117.167,343.833 117.833,343.167 118.5,342.5C 118.736,343.247 119.07,344.08 119.5,345C 121.577,345.192 123.577,345.692 125.5,346.5C 125.291,347.086 124.957,347.586 124.5,348C 127.716,348.003 130.383,349.169 132.5,351.5C 135.421,350.593 138.421,350.26 141.5,350.5C 141.351,351.552 141.517,352.552 142,353.5C 144.547,348.553 146.88,348.553 149,353.5C 149.333,352.5 149.667,351.5 150,350.5C 151.826,354.037 154.16,354.371 157,351.5C 158.18,352.684 159.68,353.351 161.5,353.5C 171.074,352.796 180.907,352.796 191,353.5C 192.084,352.082 194.084,351.082 197,350.5C 201.079,351.629 205.245,351.796 209.5,351C 208.167,350.667 206.833,350.333 205.5,350C 208.557,349.744 211.557,349.244 214.5,348.5C 217.414,349.711 219.414,348.711 220.5,345.5C 222.009,347.915 223.676,348.081 225.5,346C 225.167,345.667 224.833,345.333 224.5,345C 226.833,344.667 229.167,344.333 231.5,344C 230.692,343.692 230.025,343.192 229.5,342.5C 232.107,341.682 234.774,341.182 237.5,341C 239.037,339.89 239.703,338.39 239.5,336.5C 241.92,336.292 244.253,336.626 246.5,337.5C 247.244,336.009 247.91,334.509 248.5,333C 250.101,332.727 251.601,332.227 253,331.5C 254.507,332.535 256.007,332.368 257.5,331C 256.289,330.107 256.289,329.274 257.5,328.5C 258.736,327.754 260.07,327.421 261.5,327.5C 261.343,326.127 261.51,324.793 262,323.5C 262.667,324.833 263.333,324.833 264,323.5C 264.333,324.167 264.667,324.833 265,325.5C 265.252,323.622 265.919,321.622 267,319.5C 268.073,320.28 269.24,320.113 270.5,319C 269.007,317.844 269.174,317.01 271,316.5C 271.772,316.645 272.439,316.978 273,317.5C 274.543,315.622 276.376,314.122 278.5,313C 277.833,312.667 277.167,312.333 276.5,312C 279.64,310.027 282.64,307.86 285.5,305.5C 285.291,304.914 284.957,304.414 284.5,304C 285.728,303.221 286.728,302.221 287.5,301C 285.659,296.517 286.992,294.85 291.5,296C 289.993,295.163 289.493,293.996 290,292.5C 292.08,290.877 294.246,289.377 296.5,288C 295.216,287.316 294.049,287.483 293,288.5C 292.251,287.365 292.417,286.365 293.5,285.5C 294.086,285.709 294.586,286.043 295,286.5C 295.615,284.884 296.615,283.551 298,282.5C 298.507,281.004 298.007,279.837 296.5,279C 299.179,279.725 301.012,278.559 302,275.5C 302.301,272.493 302.135,269.493 301.5,266.5C 302.873,266.657 304.207,266.49 305.5,266C 304.484,265.481 303.818,264.647 303.5,263.5C 303.492,259.466 304.158,255.466 305.5,251.5C 308.718,251.349 309.051,250.516 306.5,249C 308.569,248.676 308.902,247.842 307.5,246.5C 309.079,242.977 310.412,239.31 311.5,235.5C 310.96,234.252 310.293,233.085 309.5,232C 310.167,229.333 310.833,226.667 311.5,224C 308.456,223.641 308.122,222.974 310.5,222C 309.512,207.632 304.345,194.132 295,181.5C 293.693,179.808 292.193,178.475 290.5,177.5C 289.713,175.896 288.38,175.229 286.5,175.5C 286.5,176.5 286.5,177.5 286.5,178.5C 286.768,180.099 286.434,181.432 285.5,182.5C 285.5,180.167 285.5,177.833 285.5,175.5C 267.167,175.5 248.833,175.5 230.5,175.5C 248.662,174.668 266.995,174.168 285.5,174C 271.833,173.667 258.167,173.333 244.5,173C 245.623,171.956 246.956,171.29 248.5,171C 245.3,170.899 242.3,170.232 239.5,169C 240.253,167.513 241.086,167.346 242,168.5C 242.667,167.167 242.667,165.833 242,164.5C 240.951,165.517 239.784,165.684 238.5,165C 240.392,164.027 242.392,163.36 244.5,163C 243.364,161.47 242.364,160.137 241.5,159C 246.236,157.933 250.07,156.1 253,153.5C 253.333,153.833 253.667,154.167 254,154.5C 254.853,152.875 255.853,152.542 257,153.5C 258.067,152.809 259.234,152.309 260.5,152C 259.833,151.667 259.167,151.333 258.5,151C 262.041,149.745 265.541,149.578 269,150.5C 272.089,147.957 275.256,147.957 278.5,150.5C 279.604,149.369 279.271,148.535 277.5,148C 283.27,147.538 288.937,146.538 294.5,145C 297.978,143.058 299.978,140.058 300.5,136C 299.077,134.588 299.244,133.421 301,132.5C 302.113,133.711 303.28,133.711 304.5,132.5C 305.429,129.924 306.429,127.424 307.5,125C 307.245,123.674 306.578,122.674 305.5,122C 306.5,121 307.5,120 308.5,119C 307.167,116.667 307.167,114.333 308.5,112C 306.956,109.159 305.623,106.159 304.5,103C 304.957,102.586 305.291,102.086 305.5,101.5C 302.882,99.8004 302.216,97.6337 303.5,95C 302.376,94.7508 301.376,94.2508 300.5,93.5C 298.228,86.2523 293.895,80.919 287.5,77.5C 286.752,75.6675 285.752,74.0009 284.5,72.5 Z"/></g>
<g><path style="opacity:1" fill="#f8f8f9" d="M 161.5,198.5 C 163.517,199.529 165.517,200.529 167.5,201.5C 169.493,203.163 171.826,204.33 174.5,205C 181.523,205.623 188.523,205.457 195.5,204.5C 196.482,201.038 196.815,197.371 196.5,193.5C 191.167,193.5 185.833,193.5 180.5,193.5C 180.5,187.5 180.5,181.5 180.5,175.5C 192.833,175.5 205.167,175.5 217.5,175.5C 217.5,188.5 217.5,201.5 217.5,214.5C 216.833,215.167 216.167,215.833 215.5,216.5C 201.591,224.559 186.591,227.725 170.5,226C 154.132,222.16 141.798,212.993 133.5,198.5C 128.912,187.946 127.412,176.946 129,165.5C 129.156,162.809 129.989,160.476 131.5,158.5C 132.76,158.799 133.927,158.799 135,158.5C 136.163,156.715 136.83,154.715 137,152.5C 137.414,152.043 137.914,151.709 138.5,151.5C 140.714,153.924 141.714,153.257 141.5,149.5C 142.5,149.5 143.5,149.5 144.5,149.5C 144.472,151.582 145.139,153.416 146.5,155C 146,155.5 145.5,156 145,156.5C 142.822,153.532 141.656,153.865 141.5,157.5C 140.127,157.343 138.793,157.51 137.5,158C 140.691,159.869 141.358,162.369 139.5,165.5C 143.327,165.44 143.994,166.607 141.5,169C 143.019,170.218 144.186,171.718 145,173.5C 145.333,172.167 145.667,170.833 146,169.5C 147,169.5 148,169.5 149,169.5C 149.209,172.821 149.376,175.988 149.5,179C 149.095,179.945 148.428,180.612 147.5,181C 149.291,183.106 149.958,185.606 149.5,188.5C 153.333,187.839 154.833,189.172 154,192.5C 155.959,193.748 157.459,195.415 158.5,197.5C 159.325,198.386 160.325,198.719 161.5,198.5 Z"/></g>
<g><path style="opacity:1" fill="#101010" d="M 191.5,148.5 C 196.979,151.076 201.979,154.409 206.5,158.5C 207.743,160.164 209.41,161.331 211.5,162C 209.591,163.883 207.425,165.383 205,166.5C 204.51,165.207 204.343,163.873 204.5,162.5C 198.899,161.206 193.565,159.04 188.5,156C 185.623,155.275 182.957,155.775 180.5,157.5C 179.914,157.291 179.414,156.957 179,156.5C 176.542,158.805 173.709,160.472 170.5,161.5C 168.5,164.167 166.167,166.5 163.5,168.5C 160.408,174.808 158.575,181.474 158,188.5C 156.989,187.663 155.822,187.33 154.5,187.5C 153.978,184.747 153.144,182.08 152,179.5C 151.333,176.167 151.333,172.833 152,169.5C 158.934,151.114 172.1,144.114 191.5,148.5 Z"/></g>
<g><path style="opacity:1" fill="#292929" d="M 74.5,157.5 C 74.2036,167.908 74.8702,178.242 76.5,188.5C 75.7321,187.737 75.2321,186.737 75,185.5C 73.661,189.079 72.161,192.579 70.5,196C 74.0953,195.387 74.4287,196.554 71.5,199.5C 72.9293,203.523 73.2626,207.189 72.5,210.5C 73.2537,213.777 73.7537,217.11 74,220.5C 75.7396,222.184 76.9063,224.018 77.5,226C 76.4272,227.313 75.7605,228.813 75.5,230.5C 78.7558,236.301 82.2558,241.968 86,247.5C 88.9415,248.935 90.4415,251.269 90.5,254.5C 94.3107,254.596 94.3107,255.262 90.5,256.5C 93.1306,258.005 92.7973,258.671 89.5,258.5C 89.5,259.5 89.5,260.5 89.5,261.5C 92.3919,261.721 95.0585,262.554 97.5,264C 96.5509,264.617 95.7175,264.451 95,263.5C 94.2797,265.112 94.4464,266.612 95.5,268C 93.8753,268.853 93.5419,269.853 94.5,271C 93.283,272.648 92.4497,274.481 92,276.5C 91.6174,275.944 91.1174,275.611 90.5,275.5C 88.4676,274.439 87.1342,272.772 86.5,270.5C 85.6143,271.325 85.281,272.325 85.5,273.5C 81.0293,273.328 80.6959,272.494 84.5,271C 83.5832,266.892 81.9166,263.059 79.5,259.5C 78.3112,258.571 76.9778,258.238 75.5,258.5C 73.3048,253.514 71.8048,248.514 71,243.5C 70.6667,244.5 70.3333,245.5 70,246.5C 69.6892,244.444 69.1892,242.444 68.5,240.5C 68.7093,239.914 69.0426,239.414 69.5,239C 67.6473,236.429 65.9806,233.762 64.5,231C 65.428,230.612 66.0946,229.945 66.5,229C 63.9767,227.089 63.9767,225.255 66.5,223.5C 65.629,221.942 64.629,220.275 63.5,218.5C 67.3605,217.402 67.3605,216.569 63.5,216C 64.3267,212.406 64.9933,208.739 65.5,205C 65.5011,199.65 65.1678,194.316 64.5,189C 66.6241,185.1 67.9574,180.934 68.5,176.5C 69.5217,175.646 70.3551,174.646 71,173.5C 71.3333,174.5 71.6667,175.5 72,176.5C 72.0803,169.92 72.9136,163.587 74.5,157.5 Z"/></g>
<g><path style="opacity:1" fill="#d2d1d2" d="M 230.5,175.5 C 248.833,175.5 267.167,175.5 285.5,175.5C 285.5,177.833 285.5,180.167 285.5,182.5C 285.5,182.833 285.5,183.167 285.5,183.5C 285.784,185.415 285.451,187.081 284.5,188.5C 284.5,184.5 284.5,180.5 284.5,176.5C 266.833,176.5 249.167,176.5 231.5,176.5C 231.5,183.833 231.5,191.167 231.5,198.5C 230.527,196.052 230.194,193.385 230.5,190.5C 230.5,185.5 230.5,180.5 230.5,175.5 Z"/></g>
<g><path style="opacity:1" fill="#1c1c1c" d="M 286.5,178.5 C 288.48,181.22 290.313,184.22 292,187.5C 292.236,189.764 292.736,191.931 293.5,194C 292.542,195.147 292.875,196.147 294.5,197C 293.833,198 293.167,199 292.5,200C 293.578,200.674 294.245,201.674 294.5,203C 294.192,207.563 294.192,212.063 294.5,216.5C 293.212,221.372 291.879,226.205 290.5,231C 290.616,232.268 290.949,233.602 291.5,235C 289.252,237.19 287.919,240.19 287.5,244C 288.791,246.09 288.124,247.424 285.5,248C 286.665,250.715 285.998,253.048 283.5,255C 283.833,256 284.167,257 284.5,258C 282.833,259.667 281.167,261.333 279.5,263C 279.112,264.525 279.112,266.192 279.5,268C 277.999,269.252 276.332,270.252 274.5,271C 278.19,271.424 278.357,272.258 275,273.5C 271.363,279.123 267.697,284.789 264,290.5C 259.843,293.459 255.343,295.792 250.5,297.5C 250.5,298.5 250.5,299.5 250.5,300.5C 246.207,301.988 242.54,304.488 239.5,308C 231.7,310.486 224.2,314.32 217,319.5C 216.127,319.265 215.293,318.931 214.5,318.5C 208.796,319.173 203.13,320.173 197.5,321.5C 193.631,319.94 189.964,320.274 186.5,322.5C 178.748,322.33 170.915,321.997 163,321.5C 158.544,323.283 154.044,324.617 149.5,325.5C 149.587,322.402 149.087,322.068 148,324.5C 144.588,324.786 141.088,324.453 137.5,323.5C 127.979,326.306 118.979,325.14 110.5,320C 110.833,319.667 111.167,319.333 111.5,319C 107.635,318.619 104.801,316.785 103,313.5C 102.282,314.451 101.449,314.617 100.5,314C 95.6985,308.981 90.5319,304.481 85,300.5C 83.9055,298.922 83.0722,297.255 82.5,295.5C 83.5,295.5 84.5,295.5 85.5,295.5C 85.369,296.239 85.5357,296.906 86,297.5C 88.7953,299.293 91.2953,301.46 93.5,304C 99.7862,305.694 105.953,307.861 112,310.5C 116.935,309.175 121.935,308.175 127,307.5C 128.872,308.068 130.705,308.735 132.5,309.5C 137.846,308.126 143.512,307.46 149.5,307.5C 149.351,308.552 149.517,309.552 150,310.5C 150.333,310.167 150.667,309.833 151,309.5C 152.667,312.167 154.333,312.167 156,309.5C 159.057,310.451 162.223,310.784 165.5,310.5C 165.354,308.058 166.187,307.391 168,308.5C 169.586,307.624 171.086,306.624 172.5,305.5C 181.568,305.492 190.568,305.492 199.5,305.5C 204.46,304.942 209.293,303.942 214,302.5C 216.091,303.5 217.757,302.833 219,300.5C 219.333,300.833 219.667,301.167 220,301.5C 222.596,299.98 225.429,299.147 228.5,299C 234.486,294.842 240.819,291.342 247.5,288.5C 248.876,287.158 250.209,285.825 251.5,284.5C 253.423,283.692 255.423,283.192 257.5,283C 257.167,282.667 256.833,282.333 256.5,282C 258.246,281.529 259.913,280.862 261.5,280C 261.167,279.667 260.833,279.333 260.5,279C 261.191,277.933 261.691,276.766 262,275.5C 266.59,269.965 270.923,264.298 275,258.5C 275.617,257.551 275.451,256.718 274.5,256C 275.448,255.517 276.448,255.351 277.5,255.5C 277.162,252.843 277.829,250.51 279.5,248.5C 279.291,247.914 278.957,247.414 278.5,247C 280.041,245.421 281.208,243.587 282,241.5C 282.421,237.355 283.588,233.522 285.5,230C 285.167,229.667 284.833,229.333 284.5,229C 286.574,225.979 287.907,222.645 288.5,219C 288.5,216.333 288.5,213.667 288.5,211C 289.167,210 289.833,209 290.5,208C 289.426,207.261 288.759,206.261 288.5,205C 288.966,202.814 289.299,200.648 289.5,198.5C 287.009,197.459 287.009,196.626 289.5,196C 288.167,194.333 288.167,192.667 289.5,191C 288.478,188.151 287.144,185.651 285.5,183.5C 285.5,183.167 285.5,182.833 285.5,182.5C 286.434,181.432 286.768,180.099 286.5,178.5 Z"/></g>
<g><path style="opacity:1" fill="#282828" d="M 290.5,177.5 C 292.193,178.475 293.693,179.808 295,181.5C 304.345,194.132 309.512,207.632 310.5,222C 308.122,222.974 308.456,223.641 311.5,224C 310.833,226.667 310.167,229.333 309.5,232C 310.293,233.085 310.96,234.252 311.5,235.5C 310.412,239.31 309.079,242.977 307.5,246.5C 308.902,247.842 308.569,248.676 306.5,249C 309.051,250.516 308.718,251.349 305.5,251.5C 304.158,255.466 303.492,259.466 303.5,263.5C 303.818,264.647 304.484,265.481 305.5,266C 304.207,266.49 302.873,266.657 301.5,266.5C 302.135,269.493 302.301,272.493 302,275.5C 301.012,278.559 299.179,279.725 296.5,279C 298.007,279.837 298.507,281.004 298,282.5C 296.615,283.551 295.615,284.884 295,286.5C 294.586,286.043 294.086,285.709 293.5,285.5C 292.417,286.365 292.251,287.365 293,288.5C 294.049,287.483 295.216,287.316 296.5,288C 294.246,289.377 292.08,290.877 290,292.5C 289.493,293.996 289.993,295.163 291.5,296C 286.992,294.85 285.659,296.517 287.5,301C 286.728,302.221 285.728,303.221 284.5,304C 284.957,304.414 285.291,304.914 285.5,305.5C 282.64,307.86 279.64,310.027 276.5,312C 277.167,312.333 277.833,312.667 278.5,313C 276.376,314.122 274.543,315.622 273,317.5C 272.439,316.978 271.772,316.645 271,316.5C 269.174,317.01 269.007,317.844 270.5,319C 269.24,320.113 268.073,320.28 267,319.5C 265.919,321.622 265.252,323.622 265,325.5C 264.667,324.833 264.333,324.167 264,323.5C 263.333,324.833 262.667,324.833 262,323.5C 261.51,324.793 261.343,326.127 261.5,327.5C 260.07,327.421 258.736,327.754 257.5,328.5C 256.289,329.274 256.289,330.107 257.5,331C 256.007,332.368 254.507,332.535 253,331.5C 251.601,332.227 250.101,332.727 248.5,333C 247.91,334.509 247.244,336.009 246.5,337.5C 244.253,336.626 241.92,336.292 239.5,336.5C 239.703,338.39 239.037,339.89 237.5,341C 234.774,341.182 232.107,341.682 229.5,342.5C 230.025,343.192 230.692,343.692 231.5,344C 229.167,344.333 226.833,344.667 224.5,345C 224.833,345.333 225.167,345.667 225.5,346C 223.676,348.081 222.009,347.915 220.5,345.5C 219.414,348.711 217.414,349.711 214.5,348.5C 211.557,349.244 208.557,349.744 205.5,350C 206.833,350.333 208.167,350.667 209.5,351C 205.245,351.796 201.079,351.629 197,350.5C 194.084,351.082 192.084,352.082 191,353.5C 180.907,352.796 171.074,352.796 161.5,353.5C 159.68,353.351 158.18,352.684 157,351.5C 154.16,354.371 151.826,354.037 150,350.5C 149.667,351.5 149.333,352.5 149,353.5C 146.88,348.553 144.547,348.553 142,353.5C 141.517,352.552 141.351,351.552 141.5,350.5C 138.421,350.26 135.421,350.593 132.5,351.5C 130.383,349.169 127.716,348.003 124.5,348C 124.957,347.586 125.291,347.086 125.5,346.5C 123.577,345.692 121.577,345.192 119.5,345C 119.07,344.08 118.736,343.247 118.5,342.5C 117.833,343.167 117.167,343.833 116.5,344.5C 114.041,342.21 111.208,340.544 108,339.5C 105.19,337.568 102.357,335.568 99.5,333.5C 99.7093,332.914 100.043,332.414 100.5,332C 98.5,331.667 96.5,331.333 94.5,331C 95.4506,330.282 95.6172,329.449 95,328.5C 94.3333,327.167 93.6667,327.167 93,328.5C 91.513,327.747 91.3463,326.914 92.5,326C 90.1667,325 88.5,323.333 87.5,321C 86.5,320.667 85.5,320.333 84.5,320C 85.9561,319.577 86.4561,318.744 86,317.5C 85.6667,317.833 85.3333,318.167 85,318.5C 84.5,317.333 83.6667,316.5 82.5,316C 83.3081,315.692 83.9747,315.192 84.5,314.5C 81.3045,309.246 79.3045,303.58 78.5,297.5C 79.675,297.281 80.675,297.614 81.5,298.5C 84.8031,307.914 90.4698,314.748 98.5,319C 98.1667,319.333 97.8333,319.667 97.5,320C 98.7932,320.49 100.127,320.657 101.5,320.5C 101.5,321.5 101.5,322.5 101.5,323.5C 105.015,326.086 109.015,327.919 113.5,329C 116.293,333.49 120.127,334.99 125,333.5C 126.067,334.191 127.234,334.691 128.5,335C 127.5,335.333 126.5,335.667 125.5,336C 128.78,336.056 131.78,336.889 134.5,338.5C 135.5,337.833 136.5,337.167 137.5,336.5C 140.012,338.467 142.679,338.8 145.5,337.5C 146.148,339.149 147.148,340.482 148.5,341.5C 149.874,340.289 151.374,339.289 153,338.5C 154.956,338.661 156.956,338.994 159,339.5C 160.488,337.18 162.321,337.013 164.5,339C 163.304,339.654 163.304,340.154 164.5,340.5C 170.415,337.824 176.582,337.157 183,338.5C 183.95,337.978 184.784,337.311 185.5,336.5C 186.216,337.311 187.05,337.978 188,338.5C 192.127,337.761 196.294,337.261 200.5,337C 199.5,336.667 198.5,336.333 197.5,336C 205.016,335.93 212.35,334.763 219.5,332.5C 225.009,329.9 230.675,327.733 236.5,326C 237.167,324.667 237.833,323.333 238.5,322C 241.529,321.461 244.529,320.794 247.5,320C 245.5,319.667 243.5,319.333 241.5,319C 247.07,317.791 251.736,315.124 255.5,311C 256.793,310.51 258.127,310.343 259.5,310.5C 259.5,309.5 259.5,308.5 259.5,307.5C 260.552,307.649 261.552,307.483 262.5,307C 261.167,306.333 261.167,305.667 262.5,305C 264.221,304.261 265.887,303.427 267.5,302.5C 265.989,300.162 266.323,299.496 268.5,300.5C 276.669,291.294 284.169,280.96 291,269.5C 290.825,267.143 290.658,264.977 290.5,263C 291.833,262.667 293.167,262.333 294.5,262C 293.5,261 292.5,260 291.5,259C 292.167,258.667 292.833,258.333 293.5,258C 292.483,256.951 292.316,255.784 293,254.5C 294.994,257.084 295.494,256.918 294.5,254C 294.685,250.12 296.019,246.786 298.5,244C 298.348,239.971 298.348,235.638 298.5,231C 299.328,230.085 300.328,229.419 301.5,229C 299.153,227.914 299.153,226.581 301.5,225C 300.205,221.486 300.205,217.986 301.5,214.5C 300.732,210.555 300.232,206.555 300,202.5C 299.667,202.833 299.333,203.167 299,203.5C 298.764,201.236 298.264,199.069 297.5,197C 298.167,196.667 298.833,196.333 299.5,196C 297.135,189.439 294.135,183.272 290.5,177.5 Z"/></g>
<g><path style="opacity:1" fill="#222222" d="M 290.5,177.5 C 294.135,183.272 297.135,189.439 299.5,196C 298.833,196.333 298.167,196.667 297.5,197C 298.264,199.069 298.764,201.236 299,203.5C 299.333,203.167 299.667,202.833 300,202.5C 300.232,206.555 300.732,210.555 301.5,214.5C 300.205,217.986 300.205,221.486 301.5,225C 299.153,226.581 299.153,227.914 301.5,229C 300.328,229.419 299.328,230.085 298.5,231C 298.348,235.638 298.348,239.971 298.5,244C 296.019,246.786 294.685,250.12 294.5,254C 295.494,256.918 294.994,257.084 293,254.5C 292.316,255.784 292.483,256.951 293.5,258C 292.833,258.333 292.167,258.667 291.5,259C 292.5,260 293.5,261 294.5,262C 293.167,262.333 291.833,262.667 290.5,263C 290.658,264.977 290.825,267.143 291,269.5C 284.169,280.96 276.669,291.294 268.5,300.5C 266.323,299.496 265.989,300.162 267.5,302.5C 265.887,303.427 264.221,304.261 262.5,305C 261.167,305.667 261.167,306.333 262.5,307C 261.552,307.483 260.552,307.649 259.5,307.5C 259.5,308.5 259.5,309.5 259.5,310.5C 258.127,310.343 256.793,310.51 255.5,311C 251.736,315.124 247.07,317.791 241.5,319C 243.5,319.333 245.5,319.667 247.5,320C 244.529,320.794 241.529,321.461 238.5,322C 237.833,323.333 237.167,324.667 236.5,326C 230.675,327.733 225.009,329.9 219.5,332.5C 212.35,334.763 205.016,335.93 197.5,336C 198.5,336.333 199.5,336.667 200.5,337C 196.294,337.261 192.127,337.761 188,338.5C 187.05,337.978 186.216,337.311 185.5,336.5C 184.784,337.311 183.95,337.978 183,338.5C 176.582,337.157 170.415,337.824 164.5,340.5C 163.304,340.154 163.304,339.654 164.5,339C 162.321,337.013 160.488,337.18 159,339.5C 156.956,338.994 154.956,338.661 153,338.5C 151.374,339.289 149.874,340.289 148.5,341.5C 147.148,340.482 146.148,339.149 145.5,337.5C 142.679,338.8 140.012,338.467 137.5,336.5C 136.5,337.167 135.5,337.833 134.5,338.5C 131.78,336.889 128.78,336.056 125.5,336C 126.5,335.667 127.5,335.333 128.5,335C 127.234,334.691 126.067,334.191 125,333.5C 120.127,334.99 116.293,333.49 113.5,329C 109.015,327.919 105.015,326.086 101.5,323.5C 101.5,322.5 101.5,321.5 101.5,320.5C 100.127,320.657 98.7932,320.49 97.5,320C 97.8333,319.667 98.1667,319.333 98.5,319C 90.4698,314.748 84.8031,307.914 81.5,298.5C 80.675,297.614 79.675,297.281 78.5,297.5C 79.6843,296.312 79.6843,295.145 78.5,294C 79.0442,293.283 79.7109,292.783 80.5,292.5C 81.5511,293.222 82.2178,294.222 82.5,295.5C 83.0722,297.255 83.9055,298.922 85,300.5C 90.5319,304.481 95.6985,308.981 100.5,314C 101.449,314.617 102.282,314.451 103,313.5C 104.801,316.785 107.635,318.619 111.5,319C 111.167,319.333 110.833,319.667 110.5,320C 118.979,325.14 127.979,326.306 137.5,323.5C 141.088,324.453 144.588,324.786 148,324.5C 149.087,322.068 149.587,322.402 149.5,325.5C 154.044,324.617 158.544,323.283 163,321.5C 170.915,321.997 178.748,322.33 186.5,322.5C 189.964,320.274 193.631,319.94 197.5,321.5C 203.13,320.173 208.796,319.173 214.5,318.5C 215.293,318.931 216.127,319.265 217,319.5C 224.2,314.32 231.7,310.486 239.5,308C 242.54,304.488 246.207,301.988 250.5,300.5C 250.5,299.5 250.5,298.5 250.5,297.5C 255.343,295.792 259.843,293.459 264,290.5C 267.697,284.789 271.363,279.123 275,273.5C 278.357,272.258 278.19,271.424 274.5,271C 276.332,270.252 277.999,269.252 279.5,268C 279.112,266.192 279.112,264.525 279.5,263C 281.167,261.333 282.833,259.667 284.5,258C 284.167,257 283.833,256 283.5,255C 285.998,253.048 286.665,250.715 285.5,248C 288.124,247.424 288.791,246.09 287.5,244C 287.919,240.19 289.252,237.19 291.5,235C 290.949,233.602 290.616,232.268 290.5,231C 291.879,226.205 293.212,221.372 294.5,216.5C 294.192,212.063 294.192,207.563 294.5,203C 294.245,201.674 293.578,200.674 292.5,200C 293.167,199 293.833,198 294.5,197C 292.875,196.147 292.542,195.147 293.5,194C 292.736,191.931 292.236,189.764 292,187.5C 290.313,184.22 288.48,181.22 286.5,178.5C 286.5,177.5 286.5,176.5 286.5,175.5C 288.38,175.229 289.713,175.896 290.5,177.5 Z"/></g>
<g><path style="opacity:1" fill="#212121" d="M 76.5,188.5 C 79.9944,207.154 87.9944,223.487 100.5,237.5C 97.8191,240.52 97.9857,243.52 101,246.5C 106.893,251.18 112.393,255.347 117.5,259C 118.572,260.284 119.905,260.617 121.5,260C 120.378,261.613 120.878,262.78 123,263.5C 123.333,262.833 123.667,262.167 124,261.5C 124.303,263.888 125.137,266.055 126.5,268C 117.167,268.333 107.833,268.667 98.5,269C 97.6198,270.356 97.2865,271.856 97.5,273.5C 95.8333,275.833 93.8333,277.833 91.5,279.5C 89.629,279.859 88.129,280.859 87,282.5C 86.5581,280.321 85.5581,279.655 84,280.5C 84.4866,278.956 84.9866,277.29 85.5,275.5C 87.398,276.096 89.0646,276.096 90.5,275.5C 91.1174,275.611 91.6174,275.944 92,276.5C 92.4497,274.481 93.283,272.648 94.5,271C 93.5419,269.853 93.8753,268.853 95.5,268C 94.4464,266.612 94.2797,265.112 95,263.5C 95.7175,264.451 96.5509,264.617 97.5,264C 95.0585,262.554 92.3919,261.721 89.5,261.5C 89.5,260.5 89.5,259.5 89.5,258.5C 92.7973,258.671 93.1306,258.005 90.5,256.5C 94.3107,255.262 94.3107,254.596 90.5,254.5C 90.4415,251.269 88.9415,248.935 86,247.5C 82.2558,241.968 78.7558,236.301 75.5,230.5C 75.7605,228.813 76.4272,227.313 77.5,226C 76.9063,224.018 75.7396,222.184 74,220.5C 73.7537,217.11 73.2537,213.777 72.5,210.5C 73.2626,207.189 72.9293,203.523 71.5,199.5C 74.4287,196.554 74.0953,195.387 70.5,196C 72.161,192.579 73.661,189.079 75,185.5C 75.2321,186.737 75.7321,187.737 76.5,188.5 Z"/></g>
<g><path style="opacity:1" fill="#898d88" d="M 217.5,214.5 C 217.5,201.5 217.5,188.5 217.5,175.5C 205.167,175.5 192.833,175.5 180.5,175.5C 180.5,181.5 180.5,187.5 180.5,193.5C 185.833,193.5 191.167,193.5 196.5,193.5C 196.815,197.371 196.482,201.038 195.5,204.5C 195.5,204.167 195.5,203.833 195.5,203.5C 195.5,200.5 195.5,197.5 195.5,194.5C 190.167,194.5 184.833,194.5 179.5,194.5C 179.5,187.833 179.5,181.167 179.5,174.5C 192.5,174.5 205.5,174.5 218.5,174.5C 218.829,188.01 218.496,201.344 217.5,214.5 Z"/></g>
<g><path style="opacity:1" fill="#162214" d="M 167.5,201.5 C 176.752,203.125 186.085,203.792 195.5,203.5C 195.5,203.833 195.5,204.167 195.5,204.5C 188.523,205.457 181.523,205.623 174.5,205C 171.826,204.33 169.493,203.163 167.5,201.5 Z"/></g>
<g><path style="opacity:1" fill="#212121" d="M 258.5,208.5 C 256.132,218.565 252.132,227.898 246.5,236.5C 245.849,235.909 245.182,235.243 244.5,234.5C 243.646,235.522 242.646,236.355 241.5,237C 242.685,239.778 241.685,241.278 238.5,241.5C 238.5,242.5 238.5,243.5 238.5,244.5C 236.488,243.986 234.488,243.82 232.5,244C 233.574,244.739 234.241,245.739 234.5,247C 232.092,250.073 229.092,252.406 225.5,254C 224.177,254.816 223.511,255.983 223.5,257.5C 212.457,264.07 200.457,268.07 187.5,269.5C 188.29,268.599 189.29,267.932 190.5,267.5C 192.564,267.313 194.564,266.813 196.5,266C 196.043,265.586 195.709,265.086 195.5,264.5C 197.24,261.906 198.907,259.406 200.5,257C 200.167,256.667 199.833,256.333 199.5,256C 201.614,254.502 202.114,252.669 201,250.5C 201.333,250.833 201.667,251.167 202,251.5C 203.332,250.838 204.498,249.672 205.5,248C 207.5,247.667 209.5,247.333 211.5,247C 210.376,246.751 209.376,246.251 208.5,245.5C 210.045,244.548 211.712,244.215 213.5,244.5C 213.5,242.833 213.5,241.167 213.5,239.5C 215.39,239.703 216.89,239.037 218,237.5C 220.313,234.503 221.98,231.169 223,227.5C 223.333,227.833 223.667,228.167 224,228.5C 224.703,226.22 225.869,224.22 227.5,222.5C 227.291,221.914 226.957,221.414 226.5,221C 227.358,219.212 228.358,217.378 229.5,215.5C 228.833,214.833 228.167,214.167 227.5,213.5C 228.833,212.833 230.167,212.167 231.5,211.5C 229.883,211.331 228.216,210.997 226.5,210.5C 230.506,208.975 234.673,207.975 239,207.5C 243.272,208.017 247.439,208.184 251.5,208C 250.62,206.644 250.286,205.144 250.5,203.5C 252.766,203.141 254.599,203.808 256,205.5C 256.333,205.167 256.667,204.833 257,204.5C 257.21,206.058 257.71,207.391 258.5,208.5 Z"/></g>
<g><path style="opacity:1" fill="#f6f7f7" d="M 284.5,188.5 C 284.688,194.888 284.188,201.222 283,207.5C 281.16,214.197 279.326,220.864 277.5,227.5C 257.759,271.061 223.759,292.394 175.5,291.5C 175.343,290.127 175.51,288.793 176,287.5C 179.608,281.266 183.441,275.266 187.5,269.5C 200.457,268.07 212.457,264.07 223.5,257.5C 232.742,252.26 240.409,245.26 246.5,236.5C 252.132,227.898 256.132,218.565 258.5,208.5C 259.787,205.302 260.453,201.969 260.5,198.5C 250.833,198.5 241.167,198.5 231.5,198.5C 231.5,191.167 231.5,183.833 231.5,176.5C 249.167,176.5 266.833,176.5 284.5,176.5C 284.5,180.5 284.5,184.5 284.5,188.5 Z"/></g>
<g><path style="opacity:1" fill="#121211" d="M 133.5,198.5 C 141.798,212.993 154.132,222.16 170.5,226C 186.591,227.725 201.591,224.559 215.5,216.5C 217.973,216.736 219.64,218.069 220.5,220.5C 216.826,226.174 212.16,230.84 206.5,234.5C 201.68,236.246 196.846,237.912 192,239.5C 187.93,238.978 183.597,238.311 179,237.5C 178.667,237.833 178.333,238.167 178,238.5C 175.247,236.929 172.414,236.596 169.5,237.5C 166.576,235.205 163.243,233.705 159.5,233C 158.965,230.891 157.965,230.391 156.5,231.5C 153.867,230.699 152.033,229.033 151,226.5C 150.667,227.167 150.333,227.833 150,228.5C 149.683,226.699 149.016,226.366 148,227.5C 145.735,226.084 144.569,224.084 144.5,221.5C 140.71,222.047 138.71,220.38 138.5,216.5C 134.09,215.511 132.757,213.011 134.5,209C 133.5,208.667 132.5,208.333 131.5,208C 134.193,204.715 133.526,203.382 129.5,204C 130.328,203.085 131.328,202.419 132.5,202C 131.713,200.687 132.046,199.52 133.5,198.5 Z"/></g>
<g><path style="opacity:1" fill="#192416" d="M 124.5,229.5 C 125.5,229.5 126.5,229.5 127.5,229.5C 129.294,231.797 131.294,233.963 133.5,236C 143.805,241.047 154.472,245.214 165.5,248.5C 171.889,248.861 177.889,249.861 183.5,251.5C 163.822,251.328 145.822,245.828 129.5,235C 127.627,233.296 125.96,231.463 124.5,229.5 Z"/></g>
<g><path style="opacity:1" fill="#f6f6f7" d="M 167.5,92.5 C 157.34,93.6237 147.673,96.457 138.5,101C 101.365,125.236 90.0317,158.403 104.5,200.5C 108.947,211.737 115.613,221.403 124.5,229.5C 125.96,231.463 127.627,233.296 129.5,235C 145.822,245.828 163.822,251.328 183.5,251.5C 184.833,251.5 185.5,252.167 185.5,253.5C 184.017,255.094 182.517,256.76 181,258.5C 175.28,269.96 169.113,280.96 162.5,291.5C 135.492,291.833 108.492,291.5 81.5,290.5C 84.8554,286.813 88.1887,283.147 91.5,279.5C 93.8333,277.833 95.8333,275.833 97.5,273.5C 98.6266,272.878 99.6266,272.045 100.5,271C 119.5,270.667 138.5,270.333 157.5,270C 135.182,264.845 116.182,254.012 100.5,237.5C 87.9944,223.487 79.9944,207.154 76.5,188.5C 74.8702,178.242 74.2036,167.908 74.5,157.5C 75.9995,149.164 77.9995,140.831 80.5,132.5C 81.1667,132.5 81.5,132.167 81.5,131.5C 84.2371,123.682 88.2371,116.682 93.5,110.5C 95.5661,108.909 97.8994,107.575 100.5,106.5C 103.735,101.97 107.402,97.9696 111.5,94.5C 114.086,93.52 116.753,93.1866 119.5,93.5C 120.382,90.8444 121.715,88.3444 123.5,86C 126.322,84.4256 129.156,82.9256 132,81.5C 132.333,81.8333 132.667,82.1667 133,82.5C 133.374,81.5838 133.874,80.7504 134.5,80C 139.25,79.3224 143.583,77.6557 147.5,75C 153.745,74.0497 159.912,72.883 166,71.5C 172.119,72.487 178.452,72.487 185,71.5C 187.051,71.4229 188.884,71.9229 190.5,73C 187.697,74.1122 186.697,75.9455 187.5,78.5C 186.167,79.1667 184.833,79.8333 183.5,80.5C 183.931,81.2935 184.265,82.1268 184.5,83C 181.84,84.6759 181.84,86.3426 184.5,88C 182.608,88.9734 180.608,89.6401 178.5,90C 179.167,90.3333 179.833,90.6667 180.5,91C 175.981,91.1753 171.647,91.6753 167.5,92.5 Z"/></g>
<g><path style="opacity:1" fill="#1d2519" d="M 246.5,236.5 C 240.409,245.26 232.742,252.26 223.5,257.5C 223.511,255.983 224.177,254.816 225.5,254C 229.092,252.406 232.092,250.073 234.5,247C 234.241,245.739 233.574,244.739 232.5,244C 234.488,243.82 236.488,243.986 238.5,244.5C 238.5,243.5 238.5,242.5 238.5,241.5C 241.685,241.278 242.685,239.778 241.5,237C 242.646,236.355 243.646,235.522 244.5,234.5C 245.182,235.243 245.849,235.909 246.5,236.5 Z"/></g>
<g><path style="opacity:1" fill="#161615" d="M 285.5,183.5 C 287.144,185.651 288.478,188.151 289.5,191C 288.167,192.667 288.167,194.333 289.5,196C 287.009,196.626 287.009,197.459 289.5,198.5C 289.299,200.648 288.966,202.814 288.5,205C 288.759,206.261 289.426,207.261 290.5,208C 289.833,209 289.167,210 288.5,211C 288.5,213.667 288.5,216.333 288.5,219C 287.907,222.645 286.574,225.979 284.5,229C 284.833,229.333 285.167,229.667 285.5,230C 283.588,233.522 282.421,237.355 282,241.5C 281.208,243.587 280.041,245.421 278.5,247C 278.957,247.414 279.291,247.914 279.5,248.5C 277.829,250.51 277.162,252.843 277.5,255.5C 276.448,255.351 275.448,255.517 274.5,256C 275.451,256.718 275.617,257.551 275,258.5C 270.923,264.298 266.59,269.965 262,275.5C 261.691,276.766 261.191,277.933 260.5,279C 260.833,279.333 261.167,279.667 261.5,280C 259.913,280.862 258.246,281.529 256.5,282C 256.833,282.333 257.167,282.667 257.5,283C 255.423,283.192 253.423,283.692 251.5,284.5C 250.209,285.825 248.876,287.158 247.5,288.5C 240.819,291.342 234.486,294.842 228.5,299C 225.429,299.147 222.596,299.98 220,301.5C 219.667,301.167 219.333,300.833 219,300.5C 217.757,302.833 216.091,303.5 214,302.5C 209.293,303.942 204.46,304.942 199.5,305.5C 190.568,305.492 181.568,305.492 172.5,305.5C 171.086,306.624 169.586,307.624 168,308.5C 166.187,307.391 165.354,308.058 165.5,310.5C 162.223,310.784 159.057,310.451 156,309.5C 154.333,312.167 152.667,312.167 151,309.5C 150.667,309.833 150.333,310.167 150,310.5C 149.517,309.552 149.351,308.552 149.5,307.5C 143.512,307.46 137.846,308.126 132.5,309.5C 130.705,308.735 128.872,308.068 127,307.5C 121.935,308.175 116.935,309.175 112,310.5C 105.953,307.861 99.7862,305.694 93.5,304C 91.2953,301.46 88.7953,299.293 86,297.5C 85.5357,296.906 85.369,296.239 85.5,295.5C 87.9137,297.374 90.5803,298.707 93.5,299.5C 108.204,299.527 122.871,299.527 137.5,299.5C 139.833,299.667 142.167,299.833 144.5,300C 143.294,301.018 143.627,301.518 145.5,301.5C 165.203,300.089 185.203,299.256 205.5,299C 216.798,296.646 227.798,293.479 238.5,289.5C 240.149,288.352 241.649,287.019 243,285.5C 244.507,286.535 246.007,286.368 247.5,285C 251.64,280.86 255.806,276.694 260,272.5C 260.483,271.552 260.649,270.552 260.5,269.5C 261.675,269.719 262.675,269.386 263.5,268.5C 265.503,263.154 268.503,258.487 272.5,254.5C 274.161,251.17 275.828,247.837 277.5,244.5C 277.167,243.833 276.833,243.167 276.5,242.5C 277.898,240.395 279.398,238.395 281,236.5C 281.667,234.167 281.667,231.833 281,229.5C 280.29,228.027 279.124,227.36 277.5,227.5C 279.326,220.864 281.16,214.197 283,207.5C 284.188,201.222 284.688,194.888 284.5,188.5C 285.451,187.081 285.784,185.415 285.5,183.5 Z"/></g>
<g><path style="opacity:1" fill="#161715" d="M 100.5,237.5 C 116.182,254.012 135.182,264.845 157.5,270C 138.5,270.333 119.5,270.667 100.5,271C 99.6266,272.045 98.6266,272.878 97.5,273.5C 97.2865,271.856 97.6198,270.356 98.5,269C 107.833,268.667 117.167,268.333 126.5,268C 125.137,266.055 124.303,263.888 124,261.5C 123.667,262.167 123.333,262.833 123,263.5C 120.878,262.78 120.378,261.613 121.5,260C 119.905,260.617 118.572,260.284 117.5,259C 112.393,255.347 106.893,251.18 101,246.5C 97.9857,243.52 97.8191,240.52 100.5,237.5 Z"/></g>
<g><path style="opacity:1" fill="#0e0e0d" d="M 277.5,227.5 C 279.124,227.36 280.29,228.027 281,229.5C 281.667,231.833 281.667,234.167 281,236.5C 279.398,238.395 277.898,240.395 276.5,242.5C 276.833,243.167 277.167,243.833 277.5,244.5C 275.828,247.837 274.161,251.17 272.5,254.5C 268.503,258.487 265.503,263.154 263.5,268.5C 262.675,269.386 261.675,269.719 260.5,269.5C 260.649,270.552 260.483,271.552 260,272.5C 255.806,276.694 251.64,280.86 247.5,285C 246.007,286.368 244.507,286.535 243,285.5C 241.649,287.019 240.149,288.352 238.5,289.5C 227.798,293.479 216.798,296.646 205.5,299C 185.203,299.256 165.203,300.089 145.5,301.5C 143.627,301.518 143.294,301.018 144.5,300C 142.167,299.833 139.833,299.667 137.5,299.5C 122.871,299.527 108.204,299.527 93.5,299.5C 90.5803,298.707 87.9137,297.374 85.5,295.5C 84.5,295.5 83.5,295.5 82.5,295.5C 82.2178,294.222 81.5511,293.222 80.5,292.5C 108.005,292.831 135.338,292.498 162.5,291.5C 169.113,280.96 175.28,269.96 181,258.5C 182.517,256.76 184.017,255.094 185.5,253.5C 187.083,254.936 188.583,256.602 190,258.5C 190.452,261.149 191.286,263.649 192.5,266C 191.584,266.278 190.918,266.778 190.5,267.5C 189.29,267.932 188.29,268.599 187.5,269.5C 183.441,275.266 179.608,281.266 176,287.5C 175.51,288.793 175.343,290.127 175.5,291.5C 223.759,292.394 257.759,271.061 277.5,227.5 Z"/></g>
</svg>
